<?xml version="1.0" encoding="UTF-8"?>
<svg width="14px" height="14px" viewBox="0 0 14 14" version="1.1" xmlns="http://www.w3.org/2000/svg" xmlns:xlink="http://www.w3.org/1999/xlink">
    <!-- Generator: Sketch 43.1 (39012) - http://www.bohemiancoding.com/sketch -->
    <title>帮助</title>
    <desc>Created with Sketch.</desc>
    <defs></defs>
    <g id="页面" stroke="none" stroke-width="1" fill="none" fill-rule="evenodd">
        <g id="首页" transform="translate(-1302.000000, -27.000000)" fill-rule="nonzero" fill="#FFFFFF">
            <g id="顶">
                <g id="帮助" transform="translate(1302.000000, 24.000000)">
                    <g transform="translate(0.000000, 3.000000)" id="Shape">
                        <path d="M6.98920635,0 C3.13539048,0 0,3.13894938 0,6.99713961 C0,10.8553299 3.13539048,13.9942792 6.98920635,13.9942792 C10.8430222,13.9942792 13.9784127,10.8553299 13.9784127,6.99713961 C13.9785752,3.13878665 10.8431848,1.1291258e-15 6.98920635,1.1291258e-15 L6.98920635,0 Z M6.98920635,13.3433825 C3.49379048,13.3433825 0.65015873,10.496523 0.65015873,6.99713961 C0.65015873,3.49775619 3.49379048,0.650896708 6.98920635,0.650896708 C10.4846222,0.650896708 13.328254,3.49775619 13.328254,6.99713961 C13.328254,10.496523 10.4846222,13.3433825 6.98920635,13.3433825 Z"></path>
                        <path d="M6.58443683,9.76398794 L7.42509206,9.76398794 L7.42509206,10.573378 L6.58443683,10.573378 L6.58443683,9.76398794 Z M7.32789333,4.00225028 C6.05585778,3.95929109 5.27989333,4.5314293 5,5.71785128 L5.67892825,5.94452606 C5.85122032,5.01699825 6.37914921,4.57438848 7.26320254,4.61751039 C7.95285841,4.68211189 8.34084063,5.02773804 8.42714921,5.65324978 C8.49184,6.17120083 8.18967873,6.65660705 7.52180317,7.10979389 C6.93991111,7.52002154 6.65953016,8.02739552 6.68131048,8.63126494 L6.68131048,8.95492333 L7.36023873,8.95492333 L7.36023873,8.66364705 C7.33845841,8.21046022 7.55414857,7.83310285 8.00698413,7.53059861 C8.82585905,6.96985109 9.21400381,6.35459098 9.17093079,5.68563189 C9.08462222,4.62857564 8.47022222,4.06717722 7.32789333,4.00225028 L7.32789333,4.00225028 Z"></path>
                    </g>
                </g>
            </g>
        </g>
    </g>
</svg>