<?xml version="1.0" encoding="UTF-8"?>
<svg width="32px" height="32px" viewBox="0 0 32 32" version="1.1" xmlns="http://www.w3.org/2000/svg" xmlns:xlink="http://www.w3.org/1999/xlink">
    <!-- Generator: Sketch 43.1 (39012) - http://www.bohemiancoding.com/sketch -->
    <title>logo</title>
    <desc>Created with Sketch.</desc>
    <defs></defs>
    <g id="页面" stroke="none" stroke-width="1" fill="none" fill-rule="evenodd">
        <g id="首页" transform="translate(-90.000000, -18.000000)" fill="#FFFFFF">
            <g id="顶">
                <g id="名称" transform="translate(90.000000, 18.000000)">
                    <g id="logo">
                        <path d="M14.2862673,22.8886044 C14.8581092,23.0365002 15.4579142,23.1151978 16.0761547,23.1151978 C19.4049764,23.1151978 22.1993304,20.8336615 22.9719666,17.7534247 L24.8454404,17.7534247 L30.0918361,17.7534247 L32,17.7534247 C31.1241416,25.7650583 24.3161778,32 16.0476303,32 C7.18476882,32 0,24.836556 0,16 C0,8.39317856 5.32418545,2.02619639 12.4597832,0.401400491 L12.4597832,4.10278974 C7.32889178,5.63878626 3.59056569,10.3841225 3.59056569,16 C3.59056569,20.2592653 5.74092632,24.0177776 9.0182724,26.2551992 L9.0182724,24.0943957 C6.7694763,22.1324968 5.3492101,19.2498814 5.3492101,16.0365297 C5.3492101,10.7334112 9.21747205,6.33109219 14.2942057,5.48146843 L14.2942057,3.70198471 C14.2915593,3.70235641 14.2889131,3.70272894 14.2862673,3.7031023 L14.2862673,0.0952735618 C14.8647067,0.032312283 15.4523838,0 16.0476303,0 C24.3161778,0 31.1241416,6.23494172 32,14.2465753 L28.381519,14.2465753 C27.6079767,8.78856488 23.2760402,4.47097574 17.801055,3.70198471 L17.801055,5.46946549 C22.3285922,6.19501873 25.9094584,9.74346145 26.6698738,14.2465753 L22.957446,14.2465753 C22.1648545,11.1951725 19.3844535,8.94168178 16.0761547,8.94168178 C12.1505951,8.94168178 8.96830023,12.1145314 8.96830023,16.0284398 C8.96830023,18.5305878 10.2689043,20.729865 12.2328413,21.990892 L12.4597832,22.0383123 L12.4597832,27.4053074 L12.5251217,27.4053074 L12.5251217,27.9165745 C13.6420796,28.2442647 14.8242606,28.4200913 16.0476303,28.4200913 C21.0416067,28.4200913 25.3492165,25.4901285 27.3355358,21.260274 L25.4561742,21.260274 C23.6189707,24.5298421 20.110461,26.739726 16.0842687,26.739726 C15.4715921,26.739726 14.8709033,26.6885528 14.2862673,26.5902593 L14.2862673,22.8886044 Z"></path>
                    </g>
                </g>
            </g>
        </g>
    </g>
</svg>