<?xml version="1.0" encoding="UTF-8"?>
<svg width="118px" height="118px" viewBox="0 0 118 118" version="1.1" xmlns="http://www.w3.org/2000/svg" xmlns:xlink="http://www.w3.org/1999/xlink">
    <!-- Generator: Sketch 43.1 (39012) - http://www.bohemiancoding.com/sketch -->
    <title>登录logo</title>
    <desc>Created with Sketch.</desc>
    <defs></defs>
    <g id="页面" stroke="none" stroke-width="1" fill="none" fill-rule="evenodd">
        <g id="qietu-" transform="translate(-96.000000, -335.000000)" fill="#FFFFFF">
            <g id="登录logo" transform="translate(96.000000, 335.000000)">
                <path d="M52.6806105,84.4017288 C54.7892775,84.9470945 57.0010586,85.2372918 59.2808206,85.2372918 C71.5558505,85.2372918 81.8600308,76.8241266 84.7091268,65.4657534 L91.6175615,65.4657534 L110.963646,65.4657534 L118,65.4657534 C114.770272,95.0086524 89.6659057,118 59.1756368,118 C26.493835,118 1.42108547e-14,91.5848002 1.42108547e-14,59 C1.42108547e-14,30.9498459 19.6329339,7.4715992 45.9454507,1.48016431 L45.9454507,15.1290372 C27.0252884,20.7930243 13.240211,38.2914516 13.240211,59 C13.240211,74.7060407 21.1696658,88.5655548 33.2548795,96.816047 L33.2548795,88.8480843 C24.9624439,81.6135818 19.7252123,70.9839377 19.7252123,59.1347032 C19.7252123,39.5794539 33.9894282,23.3459025 52.7098833,20.2129148 L52.7098833,13.6510686 C52.7001248,13.6524393 52.6903672,13.653813 52.6806105,13.6551897 L52.6806105,0.351321259 C54.813606,0.119151544 56.9806653,0 59.1756368,0 C89.6659057,0 114.770272,22.9913476 118,52.5342466 L104.656851,52.5342466 C101.804414,32.407833 85.8303981,16.486723 65.6413902,13.6510686 L65.6413902,20.168654 C82.3366837,22.8441316 95.5411279,35.9290141 98.3451597,52.5342466 L84.6555822,52.5342466 C81.7329009,41.2821986 71.4801723,32.9724516 59.2808206,32.9724516 C44.8053194,32.9724516 33.0706071,44.6723346 33.0706071,59.1048717 C33.0706071,68.3315424 37.8665844,76.4413772 45.1086023,81.0914141 L45.9454507,81.2662766 L45.9454507,101.057071 L46.1863863,101.057071 L46.1863863,102.942368 C50.3051687,104.150726 54.6644609,104.799087 59.1756368,104.799087 C77.5909248,104.799087 93.4752357,93.9948488 100.799788,78.3972603 L93.8696424,78.3972603 C87.0949546,90.4537928 74.157325,98.6027397 59.310741,98.6027397 C57.051496,98.6027397 54.8364558,98.4140384 52.6806105,98.0515813 L52.6806105,84.4017288 Z" id="logo"></path>
            </g>
        </g>
    </g>
</svg>